<?xml version="1.0" encoding="UTF-8"?>
<svg width="198px" height="211px" viewBox="0 0 198 211" version="1.1" xmlns="http://www.w3.org/2000/svg" xmlns:xlink="http://www.w3.org/1999/xlink">
<defs></defs>
<g id="Page-1" stroke="none" stroke-width="1" fill="none" fill-rule="evenodd">
<g id="iPad" transform="translate(-286.000000, -145.000000)" fill-rule="nonzero">
<g id="logo" transform="translate(286.000000, 145.000000)">
<path d="M149.444966,86.2045977 L15.9828966,24.8137931 C12.2754171,23.1458818 7.94661474,23.5823011 4.65594144,25.9557491 C1.36526815,28.3291971 -0.376764055,32.2714593 0.0976551724,36.2712644 L20.6947586,191.293103 C21.2384995,195.309476 23.9596133,198.710564 27.7875936,200.158356 C31.615574,201.606148 35.9378212,200.86895 39.053931,198.236782 L151.94331,104.806897 C154.897311,102.365896 156.380768,98.5989661 155.874008,94.8257076 C155.367248,91.052449 152.940908,87.7988166 149.444966,86.2045977 Z" id="Shape" fill="#FFF455"></path>
<path d="M191.819172,128.116092 L78.2787586,35.337931 C75.1572749,32.7234899 70.8303611,32.0278369 67.0318669,33.5297291 C63.2333728,35.0316213 60.5847933,38.4853249 60.1474483,42.5068966 L40.6571034,197.794253 C40.1571765,201.794819 41.8910824,205.748751 45.1862947,208.122445 C48.4815069,210.496139 52.8195865,210.916139 56.517931,209.21954 L189.54869,146.702299 C192.975045,145.033307 195.317141,141.76637 195.775143,138.01716 C196.233145,134.267949 194.745096,130.543638 191.819172,128.116092 Z" id="Shape" fill="#85D0F4"></path>
<path d="M192.958483,84.1931034 L71.2557241,1.95517241 C67.8982574,-0.333863034 63.5435892,-0.624559052 59.9053789,1.19747975 C56.2671686,3.01951856 53.927851,6.66260518 53.808,10.6931034 L48.38,167.090805 C48.2313248,171.106562 50.3111322,174.882419 53.8037598,176.937554 C57.2963875,178.992688 61.6449949,178.999445 65.1441379,176.955172 L192.095862,103.012644 C195.398807,101.076532 197.493158,97.625701 197.666994,93.8331707 C197.84083,90.0406403 196.070764,86.4166582 192.958483,84.1931034 Z" id="Shape" fill="#F6BFD7"></path>
<path d="M171.425517,97.1793103 L47.2325517,18.9804598 C43.7691654,16.8214984 39.3918551,16.6971501 35.8088049,18.6559401 C32.2257547,20.6147301 30.0048201,24.3462218 30.0126897,28.3942529 L30.0126897,184.791954 C30.0048201,188.839985 32.2257547,192.571477 35.8088049,194.530267 C39.3918551,196.489057 43.7691654,196.364709 47.2325517,194.205747 L171.425517,116.031034 C174.64214,113.950097 176.580549,110.40576 176.580549,106.605172 C176.580549,102.804585 174.64214,99.2602478 171.425517,97.1793103 Z" id="Shape" fill="#E01B14"></path>
</g>
</g>
</g>
</svg>