<svg xmlns="http://www.w3.org/2000/svg" viewBox="0 0 153.039 26.131"><defs><style>.a{fill:#fff455;}.b{fill:#85d0f4;}.c{fill:#f6bfd7;}.d{fill:#e01b14;}</style></defs><g transform="translate(0.043 -0.027)"><g transform="translate(-0.043 0.027)"><path class="a" d="M18.321,18.406l-16.4-7.63A1.387,1.387,0,0,0-.031,12.2L2.5,31.467a1.375,1.375,0,0,0,2.256.863L18.628,20.718A1.38,1.38,0,0,0,18.321,18.406Z" transform="translate(0.043 -7.692)"/><path class="b" d="M36.444,26.5,22.492,14.969a1.358,1.358,0,0,0-2.228.891l-2.395,19.3a1.379,1.379,0,0,0,1.949,1.42l16.347-7.77A1.389,1.389,0,0,0,36.444,26.5Z" transform="translate(-12.873 -10.577)"/><path class="c" d="M39.066,10.491,24.111.27a1.368,1.368,0,0,0-2.144,1.086L21.3,20.794A1.366,1.366,0,0,0,23.36,22.02l15.6-9.19A1.4,1.4,0,0,0,39.066,10.491Z" transform="translate(-15.355 -0.027)"/><path class="d" d="M30.577,17.657,15.316,7.938A1.38,1.38,0,0,0,13.2,9.108V28.546a1.38,1.38,0,0,0,2.116,1.17L30.577,20A1.4,1.4,0,0,0,30.577,17.657Z" transform="translate(-9.512 -5.579)"/></g><g transform="translate(30.018 5.255)"><path d="M110.406,27.934a2.867,2.867,0,0,0,.473,1.309,2.8,2.8,0,0,0,2.256.78,4.838,4.838,0,0,0,1.56-.195,1.477,1.477,0,0,0,1.142-1.476,1.1,1.1,0,0,0-.557-.975,5.764,5.764,0,0,0-1.754-.585l-1.365-.306a8.56,8.56,0,0,1-2.785-.975,3.084,3.084,0,0,1-1.281-2.757,3.659,3.659,0,0,1,1.253-2.841,5.326,5.326,0,0,1,3.676-1.114,5.657,5.657,0,0,1,3.453,1.058,3.8,3.8,0,0,1,1.5,3.091h-2.534a1.807,1.807,0,0,0-1.03-1.615,3.365,3.365,0,0,0-1.587-.306,2.969,2.969,0,0,0-1.671.418,1.3,1.3,0,0,0-.613,1.142,1.062,1.062,0,0,0,.613,1,7.82,7.82,0,0,0,1.671.529l2.228.529a5.616,5.616,0,0,1,2.2.919,3.089,3.089,0,0,1,1.142,2.59,3.67,3.67,0,0,1-1.337,2.9,5.746,5.746,0,0,1-3.787,1.142,6.16,6.16,0,0,1-3.927-1.142,3.772,3.772,0,0,1-1.448-3.119Z" transform="translate(-107.9 -18.8)"/><path d="M152.606,32v5.653a2.664,2.664,0,0,0,.195,1.2,1.321,1.321,0,0,0,1.309.724,1.692,1.692,0,0,0,1.7-1,3.558,3.558,0,0,0,.251-1.448V32h2.479v9.385h-2.395V40.048a1.774,1.774,0,0,0-.167.251,1.466,1.466,0,0,1-.334.39,3.314,3.314,0,0,1-1.114.7,3.485,3.485,0,0,1-1.253.195,2.766,2.766,0,0,1-2.785-1.5,5.623,5.623,0,0,1-.39-2.423V32Z" transform="translate(-138.348 -28.324)"/><path d="M194.065,32.425a5.073,5.073,0,0,1,1.142,3.565,5.691,5.691,0,0,1-1.114,3.787,3.652,3.652,0,0,1-2.9,1.309,3.09,3.09,0,0,1-1.866-.557,3.678,3.678,0,0,1-.808-.891v4.873H186.1V31.423h2.339v1.392a5.045,5.045,0,0,1,.835-.975,3.151,3.151,0,0,1,1.949-.641A3.728,3.728,0,0,1,194.065,32.425Zm-1.894,1.754a1.731,1.731,0,0,0-1.615-.835,1.831,1.831,0,0,0-1.838,1.253,4.861,4.861,0,0,0-.251,1.7,2.646,2.646,0,0,0,.863,2.284,2.012,2.012,0,0,0,1.225.39,1.791,1.791,0,0,0,1.587-.78,4.154,4.154,0,0,0,.028-4.01Z" transform="translate(-164.323 -27.747)"/><path d="M227.951,31.659a3.877,3.877,0,0,1,1.615,1.392A4.468,4.468,0,0,1,230.318,35a15.535,15.535,0,0,1,.084,1.866h-6.823a2.234,2.234,0,0,0,.975,1.977,2.614,2.614,0,0,0,1.365.362,2.154,2.154,0,0,0,1.365-.418,1.976,1.976,0,0,0,.5-.641h2.506a2.959,2.959,0,0,1-.919,1.7,4.515,4.515,0,0,1-3.537,1.365,5.259,5.259,0,0,1-3.314-1.142,4.6,4.6,0,0,1-1.42-3.76,5.061,5.061,0,0,1,1.281-3.732,4.533,4.533,0,0,1,3.342-1.309A4.435,4.435,0,0,1,227.951,31.659Zm-3.676,2.116a2.581,2.581,0,0,0-.641,1.448h4.233a2.085,2.085,0,0,0-.641-1.476,2.131,2.131,0,0,0-1.448-.5A1.883,1.883,0,0,0,224.275,33.775Z" transform="translate(-189.576 -27.788)"/><path d="M262.908,31.2h.223v2.506a2.252,2.252,0,0,0-.418-.028h-.278a2.034,2.034,0,0,0-1.977.975,3.69,3.69,0,0,0-.278,1.671v4.484H257.7V31.423h2.339v1.643a4.951,4.951,0,0,1,1-1.281,2.643,2.643,0,0,1,1.782-.585Z" transform="translate(-215.983 -27.747)"/><path d="M288.843,20.1h3.008l-4.233,7.937V32.8h-2.646V28.037L280.6,20.1h3.119l2.618,5.514Z" transform="translate(-232.506 -19.738)"/><path d="M324.482,39.422a5.11,5.11,0,0,1-7.185,0,5.486,5.486,0,0,1-1.2-3.537,5.312,5.312,0,0,1,1.2-3.509A4.287,4.287,0,0,1,320.89,30.9a4.331,4.331,0,0,1,3.592,1.476,5.575,5.575,0,0,1,1.2,3.509A5.335,5.335,0,0,1,324.482,39.422Zm-1.949-1.365a3.479,3.479,0,0,0,.585-2.172,3.479,3.479,0,0,0-.585-2.172,1.974,1.974,0,0,0-1.643-.752,1.9,1.9,0,0,0-1.643.752,3.48,3.48,0,0,0-.585,2.172,3.48,3.48,0,0,0,.585,2.172,1.974,1.974,0,0,0,1.643.752A1.835,1.835,0,0,0,322.533,38.057Z" transform="translate(-258.12 -27.53)"/><path d="M356.506,32v5.653a2.664,2.664,0,0,0,.195,1.2,1.321,1.321,0,0,0,1.309.724,1.692,1.692,0,0,0,1.7-1,3.557,3.557,0,0,0,.251-1.448V32h2.478v9.385h-2.395V40.048a1.78,1.78,0,0,0-.167.251,1.466,1.466,0,0,1-.334.39,3.314,3.314,0,0,1-1.114.7,3.485,3.485,0,0,1-1.253.195,2.766,2.766,0,0,1-2.785-1.5,5.623,5.623,0,0,1-.39-2.423V32Z" transform="translate(-285.465 -28.324)"/><path d="M394.976,20.1v2.256h-3.787V32.8h-2.673V22.356H384.7V20.1Z" transform="translate(-307.616 -19.738)"/><path d="M423.706,32v5.653a2.663,2.663,0,0,0,.195,1.2,1.321,1.321,0,0,0,1.309.724,1.692,1.692,0,0,0,1.7-1,3.558,3.558,0,0,0,.251-1.448V32h2.479v9.385h-2.395V40.048a1.774,1.774,0,0,0-.167.251,1.466,1.466,0,0,1-.334.39,3.314,3.314,0,0,1-1.114.7,3.485,3.485,0,0,1-1.253.195,2.766,2.766,0,0,1-2.785-1.5,5.622,5.622,0,0,1-.39-2.423V32Z" transform="translate(-333.951 -28.324)"/><path d="M466.576,24.6a5.432,5.432,0,0,1,1.058,3.453,5.986,5.986,0,0,1-1.03,3.62,3.719,3.719,0,0,1-4.762.975,3.931,3.931,0,0,1-.919-.975v1.17H458.5V20.2h2.451v4.511a3.5,3.5,0,0,1,1.03-1,3.134,3.134,0,0,1,1.7-.418A3.387,3.387,0,0,1,466.576,24.6Zm-2.061,5.709a3.353,3.353,0,0,0,.529-2.005,4.53,4.53,0,0,0-.251-1.643,1.8,1.8,0,0,0-1.81-1.225,1.842,1.842,0,0,0-1.838,1.225,4.588,4.588,0,0,0-.251,1.671,3.47,3.47,0,0,0,.529,2.005,1.826,1.826,0,0,0,1.643.78A1.706,1.706,0,0,0,464.515,30.309Z" transform="translate(-360.864 -19.81)"/><path d="M500.351,31.659a3.877,3.877,0,0,1,1.615,1.392A4.468,4.468,0,0,1,502.718,35a15.542,15.542,0,0,1,.084,1.866h-6.823a2.234,2.234,0,0,0,.975,1.977,2.614,2.614,0,0,0,1.365.362,2.154,2.154,0,0,0,1.365-.418,1.976,1.976,0,0,0,.5-.641h2.506a2.959,2.959,0,0,1-.919,1.7,4.515,4.515,0,0,1-3.537,1.365,5.259,5.259,0,0,1-3.314-1.142,4.478,4.478,0,0,1-1.42-3.76,5.061,5.061,0,0,1,1.281-3.732,5.431,5.431,0,0,1,5.57-.919Zm-3.676,2.116a2.581,2.581,0,0,0-.641,1.448h4.233a2.085,2.085,0,0,0-.64-1.476,2.131,2.131,0,0,0-1.448-.5A1.847,1.847,0,0,0,496.675,33.775Z" transform="translate(-386.117 -27.788)"/><path d="M535.208,31.2h.223v2.506a2.252,2.252,0,0,0-.418-.028h-.278a2.034,2.034,0,0,0-1.977.975,3.69,3.69,0,0,0-.279,1.671v4.484H530V31.423h2.339v1.643a4.953,4.953,0,0,1,1-1.281,2.643,2.643,0,0,1,1.782-.585Z" transform="translate(-412.452 -27.747)"/></g></g></svg>